<?xml version="1.0" encoding="utf-8" ?><svg xmlns="http://www.w3.org/2000/svg" xmlns:xlink="http://www.w3.org/1999/xlink" width="1024" height="1024" viewBox="0 0 1024 1024"><path fill="#044C56" d="M490.003 213.785C491.007 215.277 489.044 223.32 488.659 225.637C471.269 330.56 525.324 430.953 618.975 480.455C665.602 504.702 718.967 512.757 770.674 503.355C783.905 500.933 796.528 496.916 809.348 492.956C811.792 570.127 791.963 637.083 743.589 698.165C697.609 756.223 623.484 799.386 549.466 807.612C544.882 808.203 540.283 808.671 535.674 809.014C457.639 815.337 380.303 790.282 320.802 739.399C259.857 688.196 221.918 614.749 215.435 535.414C209.509 455.777 235.602 377.067 287.928 316.742C339.33 257.445 411.817 220.514 490.003 213.785Z"/><path fill="#044C56" d="M524.773 212.47C534.398 213.935 549.188 214.94 559.19 215.739C556.584 231.556 555.484 247.585 555.906 263.61C557.607 317.572 580.754 368.629 620.218 405.472C656.706 440.108 704.296 460.683 754.525 463.536C769.109 464.451 779.124 463.587 793.428 463.179C790.033 464.018 786.487 465.034 783.094 465.946C776.505 468.321 769.199 469.557 762.311 470.679C663.012 486.853 564.767 425.138 530.851 331.375C516.241 290.986 517.254 254.696 524.773 212.47Z"/></svg>